PathFileType	4	(X/Y/Z)	/Users/itak/Documents/Research/Walk-IL/dataset/trc/00342_00011.trc
DataRate	CameraRate	NumFrames	NumMarkers	Units	OrigDataRate	OrigDataStartFrame	OrigNumFrames
100.000000	100.000000	4	55	mm	100.000000	0	746
Frame#	Time	RPSI			LPSI			L3			STRN			T10			C7			CLAV			RBAK			LBAK			LSHO			LUPA			LAEL			LAOL			LWTS			LWPS			LFRA			LIFD			LHPS			LHTS			RSHO			RUPA			RAEL			RAOL			RWTS			RWPS			RFRA			RIFD			RHTS			RHPS			RBHD			LFHD			RFHD			LBHD			LHIP			RHIP			RASI			LASI			LKNE			LTHI			LANK			LTIP			LTOE			LMT1			LMT5			LHEE			RKNE			RTHI			RTIP			RTOE			RMT1			RMT5			RHEE			RANK			*53			*54			
		X1	Y1	Z1	X2	Y2	Z2	X3	Y3	Z3	X4	Y4	Z4	X5	Y5	Z5	X6	Y6	Z6	X7	Y7	Z7	X8	Y8	Z8	X9	Y9	Z9	X10	Y10	Z10	X11	Y11	Z11	X12	Y12	Z12	X13	Y13	Z13	X14	Y14	Z14	X15	Y15	Z15	X16	Y16	Z16	X17	Y17	Z17	X18	Y18	Z18	X19	Y19	Z19	X20	Y20	Z20	X21	Y21	Z21	X22	Y22	Z22	X23	Y23	Z23	X24	Y24	Z24	X25	Y25	Z25	X26	Y26	Z26	X27	Y27	Z27	X28	Y28	Z28	X29	Y29	Z29	X30	Y30	Z30	X31	Y31	Z31	X32	Y32	Z32	X33	Y33	Z33	X34	Y34	Z34	X35	Y35	Z35	X36	Y36	Z36	X37	Y37	Z37	X38	Y38	Z38	X39	Y39	Z39	X40	Y40	Z40	X41	Y41	Z41	X42	Y42	Z42	X43	Y43	Z43	X44	Y44	Z44	X45	Y45	Z45	X46	Y46	Z46	X47	Y47	Z47	X48	Y48	Z48	X49	Y49	Z49	X50	Y50	Z50	X51	Y51	Z51	X52	Y52	Z52	X53	Y53	Z53	X54	Y54	Z54	X55	Y55	Z55	

1	0	-265.8684997558594	981.8482666015625	1110.857666015625	-270.6138610839844	979.2945556640625	982.8006591796875	-271.9776306152344	1031.4208984375	1049.785400390625	-54.2510986328125	1227.419067382812	1025.924682617188	-291.9432983398438	1151.698364257812	1038.30908203125	-261.4741821289062	1400.8828125	1020.247863769531	-103.5033950805664	1351.127685546875	1022.187316894531	-300.0740051269531	1261.396362304688	1089.83056640625	-272.2643127441406	1362.07763671875	919.1506958007812	-189.5301513671875	1382.488525390625	859.54931640625	-203.1268768310547	1259.629272460938	795.2489013671875	-175.0671081542969	1055.8115234375	789.128662109375	-235.7870330810547	1042.34716796875	847.5091552734375	-68.84342956542969	818.4132690429688	836.5235595703125	-109.0056076049805	804.771728515625	781.966064453125	-155.4477386474609	952.5689697265625	784.0853881835938	-60.15351486206055	657.6974487304688	844.4871215820312	-111.083137512207	734.88623046875	789.0409545898438	-55.3967399597168	739.3040771484375	822.7916870117188	-199.9962921142578	1391.101928710938	1181.96142578125	-208.3687133789062	1325.48583984375	1245.083129882812	-194.4415740966797	1057.8876953125	1283.017822265625	-232.5996246337891	1050.646850585938	1196.393920898438	-82.23921203613281	831.2958374023438	1243.436279296875	-119.5414657592773	816.6536254882812	1309.077270507812	-169.35791015625	991.8572998046875	1292.579833984375	-70.16053771972656	660.2374267578125	1245.919311523438	-53.08801651000977	730.5306396484375	1259.018920898438	-103.7731857299805	732.0824584960938	1305.830322265625	-215.9010009765625	1609.0419921875	1101.027954101562	-50.86317443847656	1624.359375	975.5001831054688	-56.10016250610352	1625.215576171875	1076.262084960938	-234.9436187744141	1603.643676757812	957.451904296875	-188.8086242675781	921.582275390625	875.8334350585938	-179.0868988037109	926.7810668945312	1213.743041992188	-78.90557861328125	959.0712280273438	1170.426879882812	-66.33864593505859	949.0343017578125	930.180419921875	-158.9443664550781	466.4632568359375	871.1019897460938	-150.60205078125	604.8987426757812	866.4462280273438	-246.1587829589844	51.19060897827148	863.125244140625	-205.588623046875	254.5524597167969	854.2515258789062	-41.80921936035156	44.33074951171875	923.4434814453125	-113.2275390625	31.72640419006348	962.0459594726562	-119.7799606323242	45.85868835449219	848.68017578125	-281.1977844238281	45.58178329467773	929.768798828125	-168.3692779541016	468.7384643554688	1211.097534179688	-114.3015594482422	725.070068359375	1227.12548828125	-167.7019348144531	349.8028564453125	1206.842407226562	-44.3437385559082	47.59796142578125	1160.28125	-95.74863433837891	46.56621551513672	1115.7314453125	-141.3309173583984	35.26728057861328	1225.81640625	-287.1607055664062	54.78637313842773	1151.874389648438	-239.7257232666016	48.55153656005859	1203.5693359375	nan	nan	nan	nan	nan	nan	
2	0.01	-265.8326110839844	981.845458984375	1110.857666015625	-270.5872192382812	979.2967529296875	982.7911987304688	-271.90283203125	1031.439819335938	1049.799072265625	-54.18046569824219	1227.40234375	1025.888916015625	-291.8547058105469	1151.687744140625	1038.291625976562	-261.4283447265625	1400.8974609375	1020.256042480469	-103.4019927978516	1351.128784179688	1022.137084960938	-300.0356140136719	1261.40087890625	1089.833984375	-272.1817932128906	1362.092895507812	919.1618041992188	-189.4205169677734	1382.48193359375	859.525146484375	-203.0719604492188	1259.632446289062	795.2291870117188	-175.0143585205078	1055.806030273438	789.1170043945312	-235.6974792480469	1042.3291015625	847.4910278320312	-68.78861236572266	818.3983764648438	836.5264282226562	-108.9498672485352	804.7650756835938	781.9783325195312	-155.3924102783203	952.566162109375	784.0726318359375	-60.19170379638672	657.7177124023438	844.527099609375	-111.0424118041992	734.8775024414062	789.0519409179688	-55.37092208862305	739.3048706054688	822.7921752929688	-199.9338226318359	1391.096313476562	1181.950805664062	-208.3151245117188	1325.500732421875	1245.087036132812	-194.3939819335938	1057.89990234375	1283.0283203125	-232.5516815185547	1050.6572265625	1196.404296875	-82.20001983642578	831.3046264648438	1243.420043945312	-119.4594802856445	816.6537475585938	1309.053833007812	-169.3167724609375	991.85400390625	1292.585083007812	-70.15897369384766	660.2224731445312	1245.922485351562	-53.0761833190918	730.5211791992188	1259.01953125	-103.7092666625977	732.0610961914062	1305.785034179688	-215.7693328857422	1609.0478515625	1101.003173828125	-50.73696517944336	1624.353637695312	975.4537353515625	-55.97568130493164	1625.1982421875	1076.229370117188	-234.8974456787109	1603.632690429688	957.4762573242188	-188.7918701171875	921.5819091796875	875.8271484375	-179.096923828125	926.8157958984375	1213.745727539062	-78.86482238769531	959.0761108398438	1170.424560546875	-66.29901885986328	949.0294189453125	930.1764526367188	-158.9296417236328	466.4562683105469	871.10693359375	-150.5886535644531	604.9036865234375	866.4392700195312	-246.1598510742188	51.19033050537109	863.1260375976562	-205.5803070068359	254.5518951416016	854.2459106445312	-41.80736541748047	44.33283996582031	923.4461669921875	-113.2273025512695	31.72628784179688	962.0465087890625	-119.7775650024414	45.86071395874023	848.6781005859375	-281.1974182128906	45.57770538330078	929.7666015625	-168.3599548339844	468.7430725097656	1211.096923828125	-114.3494186401367	725.1218872070312	1227.1640625	-167.6818084716797	349.8041381835938	1206.84423828125	-44.34269332885742	47.59732055664062	1160.282958984375	-95.75186920166016	46.56496810913086	1115.732543945312	-141.3282012939453	35.27352523803711	1225.818725585938	-287.1590576171875	54.78608703613281	1151.873779296875	-239.7239379882812	48.55229568481445	1203.5693359375	nan	nan	nan	nan	nan	nan	
3	0.02	-265.7868041992188	981.8428955078125	1110.858032226562	-270.5536193847656	979.3017578125	982.779541015625	-271.8018188476562	1031.465209960938	1049.817260742188	-54.08867263793945	1227.383544921875	1025.84326171875	-291.7414245605469	1151.675170898438	1038.269165039062	-261.3629455566406	1400.915283203125	1020.264282226562	-103.2653350830078	1351.129638671875	1022.070922851562	-299.9784240722656	1261.406005859375	1089.837036132812	-272.0755615234375	1362.11083984375	919.1786499023438	-189.2762145996094	1382.472045898438	859.4900512695312	-203.0008850097656	1259.636962890625	795.2026977539062	-174.9469909667969	1055.79833984375	789.1017456054688	-235.5825042724609	1042.305419921875	847.465087890625	-68.71604156494141	818.3790283203125	836.5286865234375	-108.8768310546875	804.7573852539062	781.9928588867188	-155.3217620849609	952.5620727539062	784.0580444335938	-60.23884201049805	657.7454833984375	844.5797729492188	-110.9846725463867	734.8659057617188	789.0645751953125	-55.33304595947266	739.3067626953125	822.7925415039062	-199.8493347167969	1391.091674804688	1181.93701171875	-208.2420806884766	1325.521118164062	1245.090087890625	-194.3312377929688	1057.917114257812	1283.040405273438	-232.4883575439453	1050.669799804688	1196.417358398438	-82.14736938476562	831.3172607421875	1243.397583007812	-119.3564300537109	816.6583251953125	1309.025268554688	-169.2611389160156	991.8522338867188	1292.591552734375	-70.15617370605469	660.2039184570312	1245.926147460938	-53.05763244628906	730.510986328125	1259.01806640625	-103.6238861083984	732.0338745117188	1305.721801757812	-215.6015167236328	1609.0556640625	1100.97412109375	-50.56771087646484	1624.346801757812	975.3953857421875	-55.81281661987305	1625.17333984375	1076.192626953125	-234.8208160400391	1603.621215820312	957.4996337890625	-188.7705383300781	921.58154296875	875.8192749023438	-179.1036987304688	926.8623657226562	1213.751342773438	-78.81242370605469	959.0807495117188	1170.423461914062	-66.24647521972656	949.0228881835938	930.1718139648438	-158.9095916748047	466.4477844238281	871.1114501953125	-150.5709381103516	604.9093017578125	866.4302368164062	-246.1606903076172	51.18980026245117	863.1266479492188	-205.5691680908203	254.5509338378906	854.23974609375	-41.80501937866211	44.33462524414062	923.44921875	-113.2270050048828	31.72627830505371	962.0470581054688	-119.7750854492188	45.86304473876953	848.6761474609375	-281.1970520019531	45.57371139526367	929.764404296875	-168.3453216552734	468.7470092773438	1211.09521484375	-114.407829284668	725.1868286132812	1227.213256835938	-167.6539459228516	349.8053588867188	1206.84521484375	-44.34123611450195	47.59572601318359	1160.284790039062	-95.75548553466797	46.56341171264648	1115.733520507812	-141.3254699707031	35.28114700317383	1225.8212890625	-287.1569519042969	54.78572082519531	1151.872436523438	-239.7216339111328	48.55295944213867	1203.569091796875	nan	nan	nan	nan	nan	nan	
4	0.03	-265.7332763671875	981.84130859375	1110.85888671875	-270.5146484375	979.3103637695312	982.7662353515625	-271.6758422851562	1031.496948242188	1049.839965820312	-53.97879791259766	1227.364379882812	1025.789794921875	-291.6083984375	1151.661987304688	1038.242797851562	-261.2766723632812	1400.934692382812	1020.270751953125	-103.0952835083008	1351.12939453125	1021.990966796875	-299.89990234375	1261.4111328125	1089.838500976562	-271.9493408203125	1362.129760742188	919.2008056640625	-189.1009826660156	1382.458740234375	859.4434204101562	-202.9157867431641	1259.642578125	795.169677734375	-174.8675994873047	1055.787963867188	789.0834350585938	-235.4463500976562	1042.27685546875	847.4306640625	-68.62732696533203	818.3558349609375	836.5297241210938	-108.7887954711914	804.7494506835938	782.0082397460938	-155.2384490966797	952.5562744140625	784.0430297851562	-60.29180145263672	657.7804565429688	844.6436767578125	-110.9089965820312	734.851318359375	789.0774536132812	-55.28165435791016	739.3099365234375	822.792236328125	-199.7438201904297	1391.089721679688	1181.920166015625	-208.1496887207031	1325.546875	1245.091064453125	-194.2547302246094	1057.939453125	1283.05322265625	-232.4114837646484	1050.68359375	1196.431884765625	-82.08203125	831.333984375	1243.369140625	-119.236930847168	816.66943359375	1308.993041992188	-169.1919403076172	991.853271484375	1292.598876953125	-70.15153503417969	660.1829833984375	1245.929565429688	-53.03104782104492	730.5015258789062	1259.012451171875	-103.5184326171875	732.001953125	1305.640380859375	-215.4047698974609	1609.065185546875	1100.943237304688	-50.35854339599609	1624.339233398438	975.328369140625	-55.61670684814453	1625.140869140625	1076.156372070312	-234.7083435058594	1603.6103515625	957.5179443359375	-188.7453460693359	921.5813598632812	875.8102416992188	-179.1050567626953	926.9197998046875	1213.76123046875	-78.75025177001953	959.0841064453125	1170.424560546875	-66.18212890625	949.014892578125	930.1668090820312	-158.8844451904297	466.4383850097656	871.1144409179688	-150.5493316650391	604.9150390625	866.41943359375	-246.1609802246094	51.18898010253906	863.1270141601562	-205.5553894042969	254.5494689941406	854.2337036132812	-41.8023796081543	44.33574676513672	923.452392578125	-113.2266540527344	31.7264404296875	962.0474243164062	-119.7728805541992	45.86546325683594	848.674560546875	-281.1968383789062	45.57051849365234	929.7625122070312	-168.3243408203125	468.7488708496094	1211.091796875	-114.4719314575195	725.2609252929688	1227.27001953125	-167.6181945800781	349.8062133789062	1206.844482421875	-44.33938598632812	47.59299087524414	1160.286376953125	-95.75909423828125	46.56161499023438	1115.734252929688	-141.3231353759766	35.28960800170898	1225.823486328125	-287.1543884277344	54.78545761108398	1151.869995117188	-239.7189178466797	48.5533332824707	1203.568481445312	nan	nan	nan	nan	nan	nan	
